<svg width="20" height="20" viewBox="0 0 20 20" fill="none" xmlns="http://www.w3.org/2000/svg">
<path d="M16.7832 11.127L16.7871 11.1289C16.8477 10.7598 16.877 10.3828 16.877 10.0098C16.877 9.67578 16.8516 9.33984 16.8047 9.01172C16.8516 9.33789 16.875 9.66797 16.875 9.99805C16.875 10.377 16.8438 10.7559 16.7832 11.127ZM1.93359 7.77539C1.92383 7.76758 1.91602 7.75977 1.90625 7.75C1.91992 7.76367 1.93359 7.77734 1.94922 7.79102L3.22852 8.88281V8.88086L1.93359 7.77539ZM12.4141 3.55664H12.416L12.1133 1.91992C12.1094 1.90039 12.1055 1.88281 12.0996 1.86523C12.1016 1.875 12.1055 1.88672 12.1074 1.89648L12.4141 3.55664ZM13.4688 14.2305L14.082 13.7266L15.8945 14.3691C16.2266 13.9219 16.5059 13.4414 16.7266 12.9316L15.2676 11.6836L15.3965 10.9004C15.4453 10.6055 15.4707 10.3027 15.4707 10C15.4707 9.69727 15.4453 9.39453 15.3965 9.09961L15.2695 8.32031L16.7285 7.07227C16.5059 6.56445 16.2285 6.08203 15.8965 5.63477L14.084 6.27734L13.4707 5.77344C13.0039 5.39062 12.4824 5.08984 11.9219 4.87891L11.1777 4.59961L10.8281 2.70508C10.2765 2.64258 9.71959 2.64258 9.16797 2.70508L8.81836 4.60352L8.07813 4.88281C7.52148 5.09375 7.00391 5.39453 6.54102 5.77539L5.92773 6.28125L4.10352 5.63281C3.77148 6.08008 3.49219 6.56055 3.27148 7.07031L4.74609 8.33008L4.61914 9.11133C4.57031 9.40234 4.54688 9.70117 4.54688 10C4.54688 10.2969 4.57227 10.5977 4.61914 10.8887L4.74609 11.6699L3.27148 12.9297C3.49414 13.4375 3.77148 13.9199 4.10352 14.3672L5.92773 13.7187L6.54102 14.2246C7.00391 14.6055 7.52148 14.9062 8.07813 15.1172L8.81641 15.4004L9.16602 17.2988C9.7168 17.3613 10.2773 17.3613 10.8262 17.2988L11.1758 15.4043L11.9199 15.125C12.4824 14.9141 13.002 14.6133 13.4688 14.2305ZM10.0098 13.248C9.41406 13.248 8.85352 13.0957 8.36328 12.8281C7.29102 12.2461 6.5625 11.1113 6.5625 9.80469C6.5625 7.90625 8.10156 6.36719 10 6.36719C11.3066 6.36719 12.4414 7.0957 13.0234 8.16797C13.291 8.65625 13.4434 9.2168 13.4434 9.81445C13.4434 11.7109 11.9062 13.248 10.0098 13.248ZM4.04688 15.875C3.93945 15.9121 3.82813 15.9199 3.72266 15.8984C3.83398 15.9219 3.95117 15.918 4.06445 15.8789L5.6543 15.3125C5.65234 15.3105 5.64844 15.3086 5.64648 15.3066L4.04688 15.875ZM18.0625 7.77539L16.7832 8.86914C16.7832 8.87305 16.7852 8.87891 16.7852 8.88281L18.0625 7.79102C18.2012 7.67187 18.2793 7.5 18.2813 7.32227C18.2754 7.49414 18.1973 7.66016 18.0625 7.77539Z" fill="#FFCC01"/>
<path d="M18.2773 12.6289C18.2871 12.7207 18.2773 12.8145 18.2441 12.9043L18.2265 12.9551C17.8734 13.939 17.3461 14.8513 16.6699 15.6484L16.6347 15.6895C16.5528 15.7863 16.4433 15.8559 16.3209 15.8891C16.1984 15.9222 16.0688 15.9173 15.9492 15.875L14.3613 15.3105C13.7787 15.7905 13.1208 16.1706 12.414 16.4355L12.1074 18.0957C12.0842 18.2206 12.0236 18.3355 11.9336 18.4252C11.8436 18.5149 11.7285 18.575 11.6035 18.5977L11.5507 18.6074C11.0403 18.6997 10.5226 18.7461 10.0039 18.7461H10.0097C10.5312 18.7461 11.0527 18.6992 11.5605 18.6074L11.6132 18.5977C11.7382 18.575 11.8534 18.5149 11.9434 18.4252C12.0334 18.3355 12.094 18.2206 12.1171 18.0957L12.4238 16.4375C13.1308 16.1719 13.7832 15.7949 14.3691 15.3145L15.955 15.8789C16.0746 15.9212 16.2043 15.9261 16.3267 15.893C16.4492 15.8598 16.5586 15.7902 16.6406 15.6934L16.6757 15.6523C17.3554 14.8496 17.8769 13.9453 18.2304 12.9629L18.248 12.9121C18.2792 12.8203 18.289 12.7227 18.2773 12.6289Z" fill="#FFCC01"/>
<path d="M13.4375 9.80469C13.4375 9.21289 13.2871 8.6543 13.0234 8.16797C12.4414 7.0957 11.3066 6.36719 10 6.36719C8.10157 6.36719 6.56251 7.90625 6.56251 9.80469C6.56251 11.1113 7.29102 12.2461 8.36329 12.8281C8.84962 13.0918 9.40626 13.2422 10 13.2422C11.8984 13.2422 13.4375 11.7031 13.4375 9.80469ZM7.81251 9.80469C7.81251 9.2207 8.04102 8.67187 8.45313 8.25781C8.8672 7.84375 9.41602 7.61719 10 7.61719C10.584 7.61719 11.1328 7.84375 11.5469 8.25781C11.7504 8.4607 11.9117 8.70181 12.0216 8.96729C12.1316 9.23276 12.188 9.51735 12.1875 9.80469C12.1875 10.3887 11.959 10.9375 11.5469 11.3516C11.344 11.555 11.1029 11.7164 10.8374 11.8263C10.5719 11.9363 10.2873 11.9926 10 11.9922C9.41602 11.9922 8.8672 11.7637 8.45313 11.3516C8.24966 11.1487 8.08832 10.9076 7.97837 10.6421C7.86843 10.3766 7.81206 10.092 7.81251 9.80469Z" fill="#365FAC"/>
<path d="M11.6035 18.5977C11.7285 18.575 11.8437 18.5149 11.9337 18.4252C12.0237 18.3356 12.0843 18.2206 12.1074 18.0957L12.4141 16.4356C13.1208 16.1706 13.7788 15.7905 14.3613 15.3106L15.9492 15.875C16.0688 15.9173 16.1985 15.9222 16.3209 15.8891C16.4434 15.8559 16.5528 15.7863 16.6348 15.6895L16.6699 15.6484C17.3496 14.8457 17.873 13.9395 18.2266 12.9551L18.2441 12.9043C18.2773 12.8145 18.2871 12.7207 18.2773 12.6289C18.2598 12.4746 18.1855 12.3281 18.0625 12.2207L16.7871 11.1289L16.7832 11.127C16.8438 10.7559 16.875 10.377 16.875 9.99805C16.875 9.66798 16.8516 9.33594 16.8047 9.01172C16.7988 8.96876 16.791 8.92579 16.7852 8.88282C16.7852 8.87891 16.7832 8.87305 16.7832 8.86915L18.0625 7.7754C18.1973 7.66016 18.2754 7.49415 18.2812 7.32227C18.2832 7.24414 18.2715 7.16407 18.2441 7.08789L18.2266 7.03711C17.8744 6.05279 17.347 5.14031 16.6699 4.34375L16.6348 4.30274C16.5526 4.20616 16.4432 4.13673 16.3208 4.10361C16.1984 4.07049 16.0689 4.07522 15.9492 4.11719L14.3613 4.68164C13.7754 4.20117 13.123 3.82227 12.416 3.55664H12.4141L12.1074 1.89648C12.1055 1.88672 12.1035 1.875 12.0996 1.86523C12.0714 1.74715 12.0095 1.6398 11.9214 1.55623C11.8334 1.47267 11.7229 1.41649 11.6035 1.39453L11.5508 1.38477C10.5332 1.20117 9.46289 1.20117 8.44531 1.38477L8.39258 1.39453C8.26757 1.41718 8.15242 1.47733 8.06241 1.56699C7.97241 1.65665 7.91181 1.77157 7.88867 1.89648L7.58008 3.56446C6.87869 3.83014 6.22552 4.20884 5.64649 4.68555L4.04688 4.11719C3.92728 4.07489 3.79764 4.06998 3.67519 4.10313C3.55274 4.13627 3.44327 4.20589 3.36133 4.30274L3.32618 4.34375C2.6499 5.14087 2.12261 6.0532 1.76954 7.03711L1.75196 7.08789C1.71126 7.20141 1.70416 7.32425 1.73153 7.44169C1.7589 7.55913 1.81957 7.66618 1.90625 7.75001C1.91602 7.75782 1.92383 7.76758 1.9336 7.7754L3.22852 8.88087V8.88282C3.16797 9.25001 3.13868 9.62305 3.13868 9.9961C3.13868 10.3711 3.16797 10.7461 3.22852 11.1113L1.9336 12.2168C1.8371 12.2994 1.76804 12.4094 1.7356 12.5322C1.70315 12.655 1.70886 12.7848 1.75196 12.9043L1.76954 12.9551C2.12305 13.9395 2.64649 14.8477 3.32618 15.6484L3.36133 15.6895C3.45704 15.8008 3.58399 15.8731 3.72266 15.8984C3.82813 15.918 3.93946 15.9121 4.04688 15.875L5.64649 15.3067C5.64844 15.3086 5.65235 15.3106 5.6543 15.3125C6.23438 15.7871 6.88086 16.1641 7.58008 16.4277L7.88867 18.0957C7.91181 18.2206 7.97241 18.3356 8.06241 18.4252C8.15242 18.5149 8.26757 18.575 8.39258 18.5977L8.44531 18.6074C8.95508 18.6992 9.47656 18.7461 9.99805 18.7461H10.0039C10.5234 18.7461 11.0449 18.6992 11.5508 18.6074L11.6035 18.5977ZM10.8262 17.2988C10.2746 17.3613 9.71764 17.3613 9.16602 17.2988L8.81641 15.4004L8.07813 15.1172C7.52149 14.9063 7.00391 14.6055 6.54102 14.2246L5.92774 13.7188L4.10352 14.3672C3.77149 13.9199 3.49414 13.4375 3.27149 12.9297L4.7461 11.6699L4.61914 10.8887C4.57227 10.5977 4.54688 10.2969 4.54688 10C4.54688 9.70118 4.57032 9.40235 4.61914 9.11133L4.7461 8.33008L3.27149 7.07032C3.49219 6.56055 3.77149 6.08008 4.10352 5.63282L5.92774 6.28125L6.54102 5.77539C7.00391 5.39453 7.52149 5.09375 8.07813 4.88282L8.81836 4.60352L9.16797 2.70508C9.7168 2.64258 10.2773 2.64258 10.8281 2.70508L11.1777 4.59961L11.9219 4.87891C12.4824 5.08985 13.0039 5.39063 13.4707 5.77344L14.084 6.27735L15.8965 5.63477C16.2285 6.08204 16.5059 6.56446 16.7285 7.07227L15.2695 8.32032L15.3965 9.09962C15.4453 9.39454 15.4707 9.69727 15.4707 10C15.4707 10.3027 15.4453 10.6055 15.3965 10.9004L15.2676 11.6836L16.7266 12.9316C16.5054 13.4412 16.2262 13.9236 15.8945 14.3692L14.082 13.7266L13.4688 14.2305C13.002 14.6133 12.4824 14.9141 11.9199 15.125L11.1758 15.4043L10.8262 17.2988Z" fill="#365FAC"/>
</svg>
