<svg width="296" height="32" viewBox="0 0 296 32" fill="none" xmlns="http://www.w3.org/2000/svg">
<rect x="0.5" y="0.5" width="295" height="31" rx="1.5" fill="white"/>
<rect x="0.5" y="0.5" width="295" height="31" rx="1.5" stroke="#D9D9D9"/>
<rect x="4.5" y="4.50021" width="61" height="23" rx="1.5" fill="#F5F5F5"/>
<rect x="4.5" y="4.50021" width="61" height="23" rx="1.5" stroke="#F0F0F0"/>
<path d="M17.7246 16.6779H15.3281L14.7715 16.4494C14.1543 16.2541 13.6797 15.9553 13.3477 15.5529C13.0156 15.1467 12.8496 14.6428 12.8496 14.0412C12.8496 13.4904 12.9707 13.0237 13.2129 12.6408C13.459 12.258 13.8066 11.967 14.2559 11.7678C14.709 11.5686 15.2441 11.469 15.8613 11.469H18.5918V20.0002H17.4609V12.3947H15.8613C15.2363 12.3947 14.7656 12.5432 14.4492 12.8401C14.1367 13.1369 13.9805 13.5373 13.9805 14.0412C13.9805 14.3694 14.0488 14.6623 14.1855 14.9201C14.3262 15.1779 14.5332 15.3811 14.8066 15.5295C15.0801 15.6779 15.4199 15.7522 15.8262 15.7522H17.7305L17.7246 16.6779ZM15.8027 16.092L13.7285 20.0002H12.5273L14.6602 16.092H15.8027ZM24.5625 13.6604V14.5569H21.6328V20.0002H20.5488V13.6604H24.5625ZM25.1016 16.9006V16.7658C25.1016 16.3088 25.168 15.885 25.3008 15.4944C25.4336 15.0998 25.625 14.758 25.875 14.469C26.125 14.176 26.4277 13.9494 26.7832 13.7893C27.1387 13.6252 27.5371 13.5432 27.9785 13.5432C28.4238 13.5432 28.8242 13.6252 29.1797 13.7893C29.5391 13.9494 29.8438 14.176 30.0938 14.469C30.3477 14.758 30.541 15.0998 30.6738 15.4944C30.8066 15.885 30.873 16.3088 30.873 16.7658V16.9006C30.873 17.3576 30.8066 17.7815 30.6738 18.1721C30.541 18.5627 30.3477 18.9045 30.0938 19.1975C29.8438 19.4865 29.541 19.7131 29.1855 19.8772C28.834 20.0373 28.4355 20.1174 27.9902 20.1174C27.5449 20.1174 27.1445 20.0373 26.7891 19.8772C26.4336 19.7131 26.1289 19.4865 25.875 19.1975C25.625 18.9045 25.4336 18.5627 25.3008 18.1721C25.168 17.7815 25.1016 17.3576 25.1016 16.9006ZM26.1855 16.7658V16.9006C26.1855 17.217 26.2227 17.5158 26.2969 17.7971C26.3711 18.0744 26.4824 18.3205 26.6309 18.5354C26.7832 18.7502 26.9727 18.9201 27.1992 19.0451C27.4258 19.1662 27.6895 19.2268 27.9902 19.2268C28.2871 19.2268 28.5469 19.1662 28.7695 19.0451C28.9961 18.9201 29.1836 18.7502 29.332 18.5354C29.4805 18.3205 29.5918 18.0744 29.666 17.7971C29.7441 17.5158 29.7832 17.217 29.7832 16.9006V16.7658C29.7832 16.4533 29.7441 16.1584 29.666 15.8811C29.5918 15.5998 29.4785 15.3518 29.3262 15.1369C29.1777 14.9182 28.9902 14.7463 28.7637 14.6213C28.541 14.4963 28.2793 14.4338 27.9785 14.4338C27.6816 14.4338 27.4199 14.4963 27.1934 14.6213C26.9707 14.7463 26.7832 14.9182 26.6309 15.1369C26.4824 15.3518 26.3711 15.5998 26.2969 15.8811C26.2227 16.1584 26.1855 16.4533 26.1855 16.7658ZM32.9531 13.6604H34.0371L33.9434 16.0334C33.9199 16.635 33.8516 17.1545 33.7383 17.592C33.625 18.0295 33.4805 18.4026 33.3047 18.7112C33.1289 19.0158 32.9316 19.2717 32.7129 19.4787C32.498 19.6858 32.2754 19.8596 32.0449 20.0002H31.5059L31.5352 19.1154L31.7578 19.1096C31.8867 18.9572 32.0117 18.801 32.1328 18.6408C32.2539 18.4768 32.3652 18.2834 32.4668 18.0608C32.5684 17.8342 32.6523 17.5588 32.7188 17.2346C32.7891 16.9065 32.834 16.5061 32.8535 16.0334L32.9531 13.6604ZM33.2227 13.6604H37.0371V20.0002H35.9531V14.6623H33.2227V13.6604ZM31.2598 19.1096H37.8516V21.8694H36.7676V20.0002H32.3438V21.8694H31.2539L31.2598 19.1096ZM39.9434 15.8401H41.8477C42.3594 15.8401 42.791 15.9299 43.1426 16.1096C43.4941 16.2854 43.7598 16.5295 43.9395 16.842C44.123 17.1506 44.2148 17.5022 44.2148 17.8967C44.2148 18.1897 44.1641 18.4651 44.0625 18.7229C43.9609 18.9768 43.8086 19.1994 43.6055 19.3908C43.4062 19.5822 43.1582 19.7326 42.8613 19.842C42.5684 19.9475 42.2305 20.0002 41.8477 20.0002H39.1523V13.6604H40.2363V19.1096H41.8477C42.1602 19.1096 42.4102 19.0529 42.5977 18.9397C42.7852 18.8264 42.9199 18.6799 43.002 18.5002C43.084 18.3205 43.125 18.133 43.125 17.9377C43.125 17.7463 43.084 17.5588 43.002 17.3752C42.9199 17.1916 42.7852 17.0393 42.5977 16.9182C42.4102 16.7932 42.1602 16.7307 41.8477 16.7307H39.9434V15.8401ZM46.4707 13.6604V20.0002H45.3867V13.6604H46.4707Z" fill="black" fill-opacity="0.85"/>
<path d="M57.578 15.9997L60.5076 12.5075C60.5567 12.4495 60.5155 12.3613 60.4396 12.3613H59.5489C59.4965 12.3613 59.4463 12.3848 59.4117 12.4249L56.9954 15.3055L54.5791 12.4249C54.5456 12.3848 54.4954 12.3613 54.4418 12.3613H53.5512C53.4753 12.3613 53.434 12.4495 53.4831 12.5075L56.4128 15.9997L53.4831 19.4919C53.4721 19.5048 53.465 19.5207 53.4628 19.5375C53.4605 19.5543 53.4631 19.5714 53.4702 19.5868C53.4774 19.6022 53.4888 19.6152 53.5032 19.6243C53.5175 19.6334 53.5342 19.6382 53.5512 19.6381H54.4418C54.4942 19.6381 54.5445 19.6147 54.5791 19.5745L56.9954 16.6939L59.4117 19.5745C59.4451 19.6147 59.4954 19.6381 59.5489 19.6381H60.4396C60.5155 19.6381 60.5567 19.5499 60.5076 19.4919L57.578 15.9997Z" fill="black" fill-opacity="0.45"/>
<rect x="70.5" y="4.5" width="90" height="23" rx="1.5" fill="#F5F5F5"/>
<rect x="70.5" y="4.5" width="90" height="23" rx="1.5" stroke="#F0F0F0"/>
<path d="M85.5059 11.4688V20H84.3809V12.3945H80.1738V20H79.043V11.4688H85.5059ZM87.1055 16.9004V16.7656C87.1055 16.3086 87.1719 15.8848 87.3047 15.4941C87.4375 15.0996 87.6289 14.7578 87.8789 14.4688C88.1289 14.1758 88.4316 13.9492 88.7871 13.7891C89.1426 13.625 89.541 13.543 89.9824 13.543C90.4277 13.543 90.8281 13.625 91.1836 13.7891C91.543 13.9492 91.8477 14.1758 92.0977 14.4688C92.3516 14.7578 92.5449 15.0996 92.6777 15.4941C92.8105 15.8848 92.877 16.3086 92.877 16.7656V16.9004C92.877 17.3574 92.8105 17.7812 92.6777 18.1719C92.5449 18.5625 92.3516 18.9043 92.0977 19.1973C91.8477 19.4863 91.5449 19.7129 91.1895 19.877C90.8379 20.0371 90.4395 20.1172 89.9941 20.1172C89.5488 20.1172 89.1484 20.0371 88.793 19.877C88.4375 19.7129 88.1328 19.4863 87.8789 19.1973C87.6289 18.9043 87.4375 18.5625 87.3047 18.1719C87.1719 17.7812 87.1055 17.3574 87.1055 16.9004ZM88.1895 16.7656V16.9004C88.1895 17.2168 88.2266 17.5156 88.3008 17.7969C88.375 18.0742 88.4863 18.3203 88.6348 18.5352C88.7871 18.75 88.9766 18.9199 89.2031 19.0449C89.4297 19.166 89.6934 19.2266 89.9941 19.2266C90.291 19.2266 90.5508 19.166 90.7734 19.0449C91 18.9199 91.1875 18.75 91.3359 18.5352C91.4844 18.3203 91.5957 18.0742 91.6699 17.7969C91.748 17.5156 91.7871 17.2168 91.7871 16.9004V16.7656C91.7871 16.4531 91.748 16.1582 91.6699 15.8809C91.5957 15.5996 91.4824 15.3516 91.3301 15.1367C91.1816 14.918 90.9941 14.7461 90.7676 14.6211C90.5449 14.4961 90.2832 14.4336 89.9824 14.4336C89.6855 14.4336 89.4238 14.4961 89.1973 14.6211C88.9746 14.7461 88.7871 14.918 88.6348 15.1367C88.4863 15.3516 88.375 15.5996 88.3008 15.8809C88.2266 16.1582 88.1895 16.4531 88.1895 16.7656ZM95.4141 13.6602V20H94.3301V13.6602H95.4141ZM99.5742 13.6602L96.5684 17.293H95.0508L94.8867 16.3438H96.1289L98.2559 13.6602H99.5742ZM98.4082 20L96.0762 17.1289L96.7734 16.3438L99.7852 20H98.4082ZM103.266 20.1172C102.824 20.1172 102.424 20.043 102.064 19.8945C101.709 19.7422 101.402 19.5293 101.145 19.2559C100.891 18.9824 100.695 18.6582 100.559 18.2832C100.422 17.9082 100.354 17.498 100.354 17.0527V16.8066C100.354 16.291 100.43 15.832 100.582 15.4297C100.734 15.0234 100.941 14.6797 101.203 14.3984C101.465 14.1172 101.762 13.9043 102.094 13.7598C102.426 13.6152 102.77 13.543 103.125 13.543C103.578 13.543 103.969 13.6211 104.297 13.7773C104.629 13.9336 104.9 14.1523 105.111 14.4336C105.322 14.7109 105.479 15.0391 105.58 15.418C105.682 15.793 105.732 16.2031 105.732 16.6484V17.1348H100.998V16.25H104.648V16.168C104.633 15.8867 104.574 15.6133 104.473 15.3477C104.375 15.082 104.219 14.8633 104.004 14.6914C103.789 14.5195 103.496 14.4336 103.125 14.4336C102.879 14.4336 102.652 14.4863 102.445 14.5918C102.238 14.6934 102.061 14.8457 101.912 15.0488C101.764 15.252 101.648 15.5 101.566 15.793C101.484 16.0859 101.443 16.4238 101.443 16.8066V17.0527C101.443 17.3535 101.484 17.6367 101.566 17.9023C101.652 18.1641 101.775 18.3945 101.936 18.5938C102.1 18.793 102.297 18.9492 102.527 19.0625C102.762 19.1758 103.027 19.2324 103.324 19.2324C103.707 19.2324 104.031 19.1543 104.297 18.998C104.562 18.8418 104.795 18.6328 104.994 18.3711L105.65 18.8926C105.514 19.0996 105.34 19.2969 105.129 19.4844C104.918 19.6719 104.658 19.8242 104.35 19.9414C104.045 20.0586 103.684 20.1172 103.266 20.1172ZM111.064 10.9004H111.955C111.955 11.2832 111.896 11.5879 111.779 11.8145C111.662 12.0371 111.502 12.209 111.299 12.3301C111.1 12.4512 110.873 12.543 110.619 12.6055C110.369 12.668 110.109 12.7285 109.84 12.7871C109.504 12.8574 109.191 12.9688 108.902 13.1211C108.617 13.2695 108.371 13.4805 108.164 13.7539C107.961 14.0273 107.811 14.3828 107.713 14.8203C107.619 15.2578 107.594 15.7988 107.637 16.4434V16.9824H106.746V16.4434C106.746 15.7207 106.814 15.0898 106.951 14.5508C107.092 14.0117 107.289 13.5566 107.543 13.1855C107.797 12.8145 108.098 12.5195 108.445 12.3008C108.797 12.082 109.184 11.9316 109.605 11.8496C109.91 11.791 110.172 11.7285 110.391 11.6621C110.609 11.5918 110.775 11.498 110.889 11.3809C111.006 11.2637 111.064 11.1035 111.064 10.9004ZM109.781 14.0234C110.195 14.0234 110.564 14.0957 110.889 14.2402C111.213 14.3848 111.488 14.5859 111.715 14.8438C111.941 15.1016 112.113 15.4062 112.23 15.7578C112.352 16.1055 112.412 16.4844 112.412 16.8945V17.0234C112.412 17.4648 112.348 17.875 112.219 18.2539C112.094 18.6289 111.908 18.957 111.662 19.2383C111.42 19.5156 111.123 19.7324 110.771 19.8887C110.424 20.0449 110.027 20.123 109.582 20.123C109.137 20.123 108.738 20.0449 108.387 19.8887C108.039 19.7324 107.742 19.5156 107.496 19.2383C107.25 18.957 107.062 18.6289 106.934 18.2539C106.809 17.875 106.746 17.4648 106.746 17.0234V16.8945C106.746 16.7969 106.764 16.7012 106.799 16.6074C106.834 16.5137 106.877 16.418 106.928 16.3203C106.982 16.2227 107.031 16.1191 107.074 16.0098C107.219 15.6582 107.416 15.332 107.666 15.0312C107.92 14.7305 108.223 14.4883 108.574 14.3047C108.93 14.1172 109.332 14.0234 109.781 14.0234ZM109.57 14.9082C109.172 14.9082 108.844 15 108.586 15.1836C108.332 15.3672 108.143 15.6113 108.018 15.916C107.893 16.2168 107.83 16.543 107.83 16.8945V17.0234C107.83 17.3203 107.865 17.6016 107.936 17.8672C108.006 18.1328 108.111 18.3691 108.252 18.5762C108.396 18.7793 108.578 18.9395 108.797 19.0566C109.02 19.1738 109.281 19.2324 109.582 19.2324C109.883 19.2324 110.143 19.1738 110.361 19.0566C110.58 18.9395 110.76 18.7793 110.9 18.5762C111.041 18.3691 111.146 18.1328 111.217 17.8672C111.287 17.6016 111.322 17.3203 111.322 17.0234V16.8945C111.322 16.6289 111.287 16.377 111.217 16.1387C111.146 15.9004 111.039 15.6895 110.895 15.5059C110.754 15.3223 110.572 15.1777 110.35 15.0723C110.131 14.9629 109.871 14.9082 109.57 14.9082ZM113.355 16.9004V16.7656C113.355 16.3086 113.422 15.8848 113.555 15.4941C113.688 15.0996 113.879 14.7578 114.129 14.4688C114.379 14.1758 114.682 13.9492 115.037 13.7891C115.393 13.625 115.791 13.543 116.232 13.543C116.678 13.543 117.078 13.625 117.434 13.7891C117.793 13.9492 118.098 14.1758 118.348 14.4688C118.602 14.7578 118.795 15.0996 118.928 15.4941C119.061 15.8848 119.127 16.3086 119.127 16.7656V16.9004C119.127 17.3574 119.061 17.7812 118.928 18.1719C118.795 18.5625 118.602 18.9043 118.348 19.1973C118.098 19.4863 117.795 19.7129 117.439 19.877C117.088 20.0371 116.689 20.1172 116.244 20.1172C115.799 20.1172 115.398 20.0371 115.043 19.877C114.688 19.7129 114.383 19.4863 114.129 19.1973C113.879 18.9043 113.688 18.5625 113.555 18.1719C113.422 17.7812 113.355 17.3574 113.355 16.9004ZM114.439 16.7656V16.9004C114.439 17.2168 114.477 17.5156 114.551 17.7969C114.625 18.0742 114.736 18.3203 114.885 18.5352C115.037 18.75 115.227 18.9199 115.453 19.0449C115.68 19.166 115.943 19.2266 116.244 19.2266C116.541 19.2266 116.801 19.166 117.023 19.0449C117.25 18.9199 117.438 18.75 117.586 18.5352C117.734 18.3203 117.846 18.0742 117.92 17.7969C117.998 17.5156 118.037 17.2168 118.037 16.9004V16.7656C118.037 16.4531 117.998 16.1582 117.92 15.8809C117.846 15.5996 117.732 15.3516 117.58 15.1367C117.432 14.918 117.244 14.7461 117.018 14.6211C116.795 14.4961 116.533 14.4336 116.232 14.4336C115.936 14.4336 115.674 14.4961 115.447 14.6211C115.225 14.7461 115.037 14.918 114.885 15.1367C114.736 15.3516 114.625 15.5996 114.551 15.8809C114.477 16.1582 114.439 16.4531 114.439 16.7656ZM124.629 13.6602V14.5566H121.564V13.6602H124.629ZM125.584 13.6602V20H124.5V13.6602H125.584ZM121.301 13.6602H122.391L122.227 16.7188C122.199 17.1914 122.154 17.6094 122.092 17.9727C122.033 18.332 121.951 18.6406 121.846 18.8984C121.744 19.1562 121.615 19.3672 121.459 19.5312C121.307 19.6914 121.123 19.8105 120.908 19.8887C120.693 19.9629 120.445 20 120.164 20H119.824V19.0449L120.059 19.0273C120.227 19.0156 120.369 18.9766 120.486 18.9102C120.607 18.8438 120.709 18.7461 120.791 18.6172C120.873 18.4844 120.939 18.3145 120.99 18.1074C121.045 17.9004 121.086 17.6543 121.113 17.3691C121.145 17.084 121.168 16.752 121.184 16.373L121.301 13.6602ZM131.566 13.6602V14.5566H128.502V13.6602H131.566ZM132.521 13.6602V20H131.438V13.6602H132.521ZM128.238 13.6602H129.328L129.164 16.7188C129.137 17.1914 129.092 17.6094 129.029 17.9727C128.971 18.332 128.889 18.6406 128.783 18.8984C128.682 19.1562 128.553 19.3672 128.396 19.5312C128.244 19.6914 128.061 19.8105 127.846 19.8887C127.631 19.9629 127.383 20 127.102 20H126.762V19.0449L126.996 19.0273C127.164 19.0156 127.307 18.9766 127.424 18.9102C127.545 18.8438 127.646 18.7461 127.729 18.6172C127.811 18.4844 127.877 18.3145 127.928 18.1074C127.982 17.9004 128.023 17.6543 128.051 17.3691C128.082 17.084 128.105 16.752 128.121 16.373L128.238 13.6602ZM135.158 15.8398H137.062C137.574 15.8398 138.006 15.9297 138.357 16.1094C138.709 16.2852 138.975 16.5293 139.154 16.8418C139.338 17.1504 139.43 17.502 139.43 17.8965C139.43 18.1895 139.379 18.4648 139.277 18.7227C139.176 18.9766 139.023 19.1992 138.82 19.3906C138.621 19.582 138.373 19.7324 138.076 19.8418C137.783 19.9473 137.445 20 137.062 20H134.367V13.6602H135.451V19.1094H137.062C137.375 19.1094 137.625 19.0527 137.812 18.9395C138 18.8262 138.135 18.6797 138.217 18.5C138.299 18.3203 138.34 18.1328 138.34 17.9375C138.34 17.7461 138.299 17.5586 138.217 17.375C138.135 17.1914 138 17.0391 137.812 16.918C137.625 16.793 137.375 16.7305 137.062 16.7305H135.158V15.8398ZM141.686 13.6602V20H140.602V13.6602H141.686Z" fill="black" fill-opacity="0.85"/>
<path d="M152.578 15.9995L155.508 12.5073C155.557 12.4493 155.515 12.3611 155.44 12.3611H154.549C154.496 12.3611 154.446 12.3845 154.412 12.4247L151.995 15.3053L149.579 12.4247C149.546 12.3845 149.495 12.3611 149.442 12.3611H148.551C148.475 12.3611 148.434 12.4493 148.483 12.5073L151.413 15.9995L148.483 19.4917C148.472 19.5046 148.465 19.5204 148.463 19.5373C148.46 19.5541 148.463 19.5712 148.47 19.5866C148.477 19.602 148.489 19.615 148.503 19.6241C148.518 19.6332 148.534 19.638 148.551 19.6379H149.442C149.494 19.6379 149.544 19.6144 149.579 19.5743L151.995 16.6937L154.412 19.5743C154.445 19.6144 154.495 19.6379 154.549 19.6379H155.44C155.515 19.6379 155.557 19.5497 155.508 19.4917L152.578 15.9995Z" fill="black" fill-opacity="0.45"/>
</svg>
